<svg width="800" height="800" viewBox="0 0 800 800" fill="none" xmlns="http://www.w3.org/2000/svg">
  <rect width="800" height="800" rx="48" fill="#F3F8F4"/>
  <rect x="120" y="560" width="560" height="120" rx="24" fill="#D6E7D4"/>
  <rect x="280" y="150" width="240" height="380" rx="44" fill="#E8F1DA"/>
  <rect x="325" y="90" width="150" height="85" rx="22" fill="#2E7D32"/>
  <rect x="350" y="60" width="100" height="46" rx="16" fill="#184E24"/>
  <rect x="305" y="255" width="190" height="130" rx="24" fill="#FFF9E3"/>
  <path d="M400 285C367 285 340 312 340 345C340 378 367 405 400 405C433 405 460 378 460 345C460 312 433 285 400 285ZM400 383C379 383 362 366 362 345C362 324 379 307 400 307C421 307 438 324 438 345C438 366 421 383 400 383Z" fill="#2E7D32"/>
  <path d="M401 319C382 337 384 362 402 375C418 366 426 353 425 339C424 329 416 321 401 319Z" fill="#7EBE66"/>
  <path d="M470 210C558 226 636 296 656 384" stroke="#9EC489" stroke-width="18" stroke-linecap="round"/>
  <path d="M642 352L666 369L642 390" stroke="#9EC489" stroke-width="18" stroke-linecap="round" stroke-linejoin="round"/>
  <circle cx="606" cy="296" r="10" fill="#A3D38C"/>
  <circle cx="632" cy="324" r="8" fill="#A3D38C"/>
  <circle cx="584" cy="332" r="8" fill="#A3D38C"/>
  <path d="M170 520C202 458 258 415 326 394" stroke="#B5C87D" stroke-width="18" stroke-linecap="round"/>
  <path d="M190 490C224 520 259 532 300 536" stroke="#E58A76" stroke-width="12" stroke-linecap="round"/>
</svg>
