<svg width="800" height="800" viewBox="0 0 800 800" fill="none" xmlns="http://www.w3.org/2000/svg">
  <rect width="800" height="800" rx="48" fill="#F4F6F7"/>
  <rect x="110" y="570" width="580" height="110" rx="24" fill="#DDE5D7"/>
  <rect x="195" y="220" width="170" height="270" rx="28" fill="#2E7D32"/>
  <rect x="220" y="245" width="120" height="220" rx="20" fill="#E9F3D9"/>
  <rect x="258" y="165" width="44" height="70" rx="16" fill="#184E24"/>
  <rect x="448" y="190" width="54" height="320" rx="24" transform="rotate(18 448 190)" fill="#C18B4A"/>
  <path d="M420 170C450 136 516 140 544 182C517 208 484 226 444 236C427 217 419 193 420 170Z" fill="#D6DCE2"/>
  <path d="M330 510C376 498 423 498 470 510" stroke="#8FAE78" stroke-width="18" stroke-linecap="round"/>
  <circle cx="280" cy="640" r="20" fill="#2E7D32"/>
  <circle cx="520" cy="640" r="20" fill="#C18B4A"/>
</svg>
